<?xml version="1.0" encoding="utf-8"?>
<!-- Generator: Adobe Illustrator 23.0.1, SVG Export Plug-In . SVG Version: 6.00 Build 0)  -->
<svg version="1.1" id="レイヤー_1" xmlns="http://www.w3.org/2000/svg" xmlns:xlink="http://www.w3.org/1999/xlink" x="0px"
	 y="0px" viewBox="0 0 452.77 166.86" enable-background="new 0 0 452.77 166.86" xml:space="preserve">
<path fill="#231815" d="M237.41,40.54c-0.53,1.29-0.8,2.73-0.8,4.32c0,1.06,0.24,1.91,0.71,2.53c0.47,0.63,1.15,0.94,2.02,0.94
	c3.45,0,6.58-3.24,9.39-9.73c0.27-0.61,0.59-0.87,0.97-0.8c0.15,0.04,0.23,0.13,0.23,0.28c0,0.15-0.43,1.15-1.28,2.99
	c-0.85,1.84-1.72,3.33-2.59,4.47c-1.93,2.66-4.32,3.98-7.17,3.98c-1.52,0-2.81-0.49-3.87-1.48c-1.06-0.99-1.59-2.33-1.59-4.04
	s0.41-3.52,1.22-5.43c0.82-1.92,1.92-3.7,3.33-5.35c1.4-1.65,3.02-2.85,4.84-3.61c0.87-0.38,1.71-0.57,2.5-0.57
	c0.8,0,1.54,0.23,2.22,0.68c0.64,0.53,0.97,1.12,0.97,1.76c0,2.28-1.37,4.46-4.1,6.54c-0.83,0.65-2.01,1.22-3.53,1.74
	C239.36,40.29,238.2,40.54,237.41,40.54z M246.97,31.44c0-0.76-0.3-1.14-0.91-1.14c-1.06,0-2.67,1.31-4.84,3.93
	c-1.29,1.59-2.43,3.38-3.41,5.35c0.64,0,1.58-0.23,2.82-0.68c1.23-0.46,2.3-1.06,3.21-1.82C245.92,35.29,246.97,33.41,246.97,31.44z
	"/>
<path fill="#231815" d="M251.52,39.89c-0.3,0.89-0.56,1.75-0.77,2.56c-0.21,0.82-0.31,1.63-0.31,2.45c0,0.82,0.19,1.57,0.57,2.28
	c0.38,0.7,0.99,1.05,1.82,1.05c1.37,0,2.69-0.92,3.98-2.76c1.29-1.84,2.65-4.18,4.1-7.03c0.3-0.53,0.59-0.74,0.85-0.63
	c0.19,0.15,0.23,0.35,0.11,0.6c-0.11,0.25-0.35,0.78-0.71,1.59c-0.36,0.82-0.63,1.39-0.8,1.71c-0.17,0.32-0.47,0.89-0.91,1.71
	c-0.44,0.82-0.82,1.42-1.14,1.82c-0.32,0.4-0.76,0.91-1.31,1.54c-0.55,0.63-1.07,1.09-1.56,1.39c-1.33,0.83-2.58,1.25-3.76,1.25
	c-1.18,0-2.09-0.26-2.73-0.77c-0.65-0.51-1.03-1.06-1.17-1.65c-0.13-0.59-0.2-1.11-0.2-1.56s0.02-1.04,0.06-1.76
	c0.11-1.21,0.35-2.39,0.71-3.53c0.36-1.14,0.56-1.78,0.6-1.94c0.87-3.15,2.11-6.58,3.73-10.3c1.61-3.72,2.98-6.51,4.1-8.39
	c1.12-1.88,2-3.16,2.65-3.84c1.29-1.37,2.56-2.05,3.81-2.05c0.87,0,1.46,0.63,1.76,1.88c0.04,0.23,0.06,0.51,0.06,0.85
	c0,1.29-0.46,2.92-1.37,4.89c-3.26,7.25-7.15,12.94-11.66,17.07C251.99,38.48,251.82,39,251.52,39.89z M258.23,29.05
	c1.9-3,3.29-5.55,4.18-7.65c0.89-2.11,1.34-3.54,1.34-4.3c0-0.76-0.13-1.14-0.4-1.14c-0.38,0-1.1,0.75-2.16,2.25
	c-1.06,1.5-2.49,4.19-4.3,8.08c-1.8,3.89-3.27,7.29-4.41,10.21C254.42,34.53,256.33,32.05,258.23,29.05z"/>
<path fill="#231815" d="M271.43,36.22c1.33-1.59,1.99-2.94,1.99-4.04c0-1.1-0.46-1.65-1.37-1.65c-1.78,0-3.81,1.63-6.09,4.89
	c-0.72,1.02-1.42,2.37-2.11,4.04c-0.68,1.67-1.02,3.18-1.02,4.52c0,1.35,0.27,2.44,0.82,3.27c0.55,0.83,1.4,1.25,2.56,1.25
	c1.16,0,2.23-0.27,3.21-0.83c0.99-0.55,1.92-1.42,2.82-2.62c0.89-1.19,1.56-2.19,2.02-2.99c0.46-0.8,1.08-1.99,1.88-3.58
	c0.27-0.53,0.49-0.75,0.68-0.65c0.19,0.1,0.28,0.23,0.28,0.4c0,0.17-0.26,0.8-0.77,1.88s-1.02,2.1-1.54,3.04
	c-0.51,0.95-1.24,2.01-2.19,3.19c-1.71,2.13-4.04,3.19-7,3.19c-2.13,0-3.65-0.52-4.58-1.56c-0.93-1.04-1.39-2.25-1.39-3.61
	c0-1.67,0.41-3.49,1.22-5.46c0.82-1.97,1.75-3.68,2.82-5.12c2.2-3,4.74-4.5,7.62-4.5c1.4,0,2.42,0.33,3.04,1
	c0.63,0.66,0.94,1.43,0.94,2.3c0,1.29-0.53,2.39-1.59,3.3c-0.53,0.49-0.98,0.74-1.34,0.74C272.01,36.62,271.7,36.49,271.43,36.22z"
	/>
<path fill="#231815" d="M286.11,29.39c2.77,0,4.15,1.75,4.15,5.23c0,1.59-0.42,3.3-1.25,5.12c-1.06,2.47-2.66,4.7-4.78,6.71
	c0.49,0.95,1.38,1.42,2.67,1.42c1.02,0,1.99-0.51,2.9-1.54c1.14-1.18,1.95-2.21,2.45-3.1c0.49-0.89,0.85-1.54,1.08-1.96
	c0.23-0.42,0.52-1.01,0.88-1.79c0.36-0.78,0.58-1.25,0.65-1.42c0.08-0.17,0.21-0.26,0.4-0.26c0.38-0.04,0.57,0.1,0.57,0.4
	c0,0.11-0.04,0.25-0.11,0.4l-0.34,0.8c-0.23,0.53-0.4,0.91-0.51,1.14s-0.31,0.64-0.6,1.22c-0.28,0.59-0.53,1.05-0.74,1.39
	c-0.21,0.34-0.49,0.8-0.85,1.37c-0.36,0.57-0.68,1.02-0.97,1.37c-0.28,0.34-0.64,0.72-1.05,1.14c-0.42,0.42-0.82,0.74-1.19,0.97
	c-0.95,0.57-1.84,0.85-2.67,0.85c-1.56,0-2.77-0.49-3.64-1.48c-1.75,1.29-3.36,1.93-4.84,1.93c-2.77,0-4.15-1.74-4.15-5.23
	c0-1.59,0.42-3.3,1.25-5.12c1.14-2.65,2.74-4.91,4.81-6.77C282.29,30.32,284.25,29.39,286.11,29.39z M286.74,31.16
	c-1.02,0-2.24,0.68-3.64,2.05c-1.4,1.37-2.66,3.22-3.76,5.58c-1.33,2.73-1.99,4.97-1.99,6.71c0,1.75,0.66,2.62,1.99,2.62
	c0.95,0,2.01-0.51,3.19-1.54c-0.61-0.87-0.91-1.8-0.91-2.79c0.08-1.63,0.74-2.45,1.99-2.45c0.49,0,0.9,0.17,1.22,0.51
	c0.32,0.34,0.48,0.65,0.48,0.94c0,0.28-0.04,0.58-0.11,0.88c0.64-0.95,1.38-2.29,2.22-4.04c0.95-1.93,1.42-3.83,1.42-5.69
	C288.84,32.09,288.14,31.16,286.74,31.16z"/>
<path fill="#231815" d="M321.73,30.64c-4.63,8.23-6.94,13.54-6.94,15.93c0,1.06,0.36,1.59,1.08,1.59c0.91,0,1.95-0.68,3.13-2.05
	c1.78-2.16,3.34-4.76,4.67-7.79c0.23-0.53,0.46-0.74,0.68-0.63s0.34,0.27,0.34,0.46c0,0.19-0.19,0.66-0.57,1.42
	c-0.38,0.76-0.68,1.37-0.91,1.82s-0.73,1.33-1.51,2.62c-0.78,1.29-1.44,2.24-1.99,2.84c-0.55,0.61-1.25,1.2-2.11,1.79
	c-0.85,0.59-1.82,0.88-2.9,0.88s-2-0.53-2.76-1.59c-0.34-0.49-0.51-1.17-0.51-2.02s0.19-1.89,0.57-3.1
	c0.38-1.21,1.42-3.19,3.13-5.92c0.42-0.68,0.63-1.22,0.63-1.62s-0.31-0.6-0.94-0.6s-1.75,0.76-3.39,2.28
	c-1.63,1.52-3.35,3.57-5.15,6.15c-1.8,2.58-2.87,4.65-3.21,6.2c-0.65,0-1.12-0.27-1.42-0.8c-0.3-0.53-0.46-0.99-0.46-1.37
	c0-1.56,1.04-4.51,3.13-8.88c0.68-1.44,1.04-2.42,1.08-2.93c0.04-0.51-0.03-0.78-0.2-0.8c-0.17-0.02-0.41,0.05-0.71,0.2
	c-0.68,0.34-1.73,1.18-3.13,2.5c-2.66,2.43-5.27,6.13-7.85,11.1c-0.19,0.42-0.43,0.67-0.71,0.77c-0.28,0.1-0.84,0.16-1.68,0.2
	s-1.38,0.13-1.65,0.28c0.68-1.33,1.88-3.81,3.58-7.45c3.07-6.52,5.12-10.28,6.15-11.27c0.46-0.46,1.08-0.68,1.88-0.68
	c0.15,0,0.54,0.06,1.17,0.17c0.63,0.11,1.09,0.13,1.39,0.06c-1.4,0.76-3.7,4.32-6.89,10.7c1.78-2.2,3.06-3.64,3.84-4.32
	c0.78-0.68,1.36-1.19,1.74-1.54c0.38-0.34,0.67-0.61,0.88-0.8c0.21-0.19,0.51-0.46,0.91-0.82c0.4-0.36,0.7-0.63,0.91-0.8
	c0.21-0.17,0.5-0.41,0.88-0.71c0.38-0.3,0.67-0.5,0.88-0.6c0.21-0.09,0.49-0.26,0.85-0.48c0.36-0.23,0.63-0.34,0.8-0.34
	c0.17,0,0.41-0.05,0.71-0.14c0.3-0.09,0.51-0.07,0.63,0.09c0.76,0.3,1.14,0.78,1.14,1.42c0,0.57-0.65,2.03-1.94,4.38
	c-1.29,2.35-2.12,3.91-2.5,4.67c1.67-2.09,3.26-3.8,4.78-5.15c1.52-1.35,3.31-2.59,5.38-3.73c2.07-1.14,3.57-1.71,4.52-1.71
	C321.39,30.53,321.58,30.57,321.73,30.64z"/>
<path fill="#231815" d="M326.17,40.54c-0.53,1.29-0.8,2.73-0.8,4.32c0,1.06,0.24,1.91,0.71,2.53c0.47,0.63,1.15,0.94,2.02,0.94
	c3.45,0,6.58-3.24,9.39-9.73c0.27-0.61,0.59-0.87,0.97-0.8c0.15,0.04,0.23,0.13,0.23,0.28c0,0.15-0.43,1.15-1.28,2.99
	c-0.85,1.84-1.72,3.33-2.59,4.47c-1.93,2.66-4.32,3.98-7.17,3.98c-1.52,0-2.81-0.49-3.87-1.48c-1.06-0.99-1.59-2.33-1.59-4.04
	s0.41-3.52,1.22-5.43c0.82-1.92,1.92-3.7,3.33-5.35c1.4-1.65,3.02-2.85,4.84-3.61c0.87-0.38,1.71-0.57,2.5-0.57
	c0.8,0,1.54,0.23,2.22,0.68c0.64,0.53,0.97,1.12,0.97,1.76c0,2.28-1.37,4.46-4.1,6.54c-0.83,0.65-2.01,1.22-3.53,1.74
	C328.12,40.29,326.96,40.54,326.17,40.54z M335.73,31.44c0-0.76-0.3-1.14-0.91-1.14c-1.06,0-2.67,1.31-4.84,3.93
	c-1.29,1.59-2.43,3.38-3.41,5.35c0.64,0,1.58-0.23,2.82-0.68c1.23-0.46,2.3-1.06,3.21-1.82C334.68,35.29,335.73,33.41,335.73,31.44z
	"/>
<path fill="#231815" d="M350.97,44.76c0-3.15,1.52-8.42,4.55-15.82h-2.96c-0.19,0-0.31-0.1-0.37-0.31
	c-0.06-0.21-0.04-0.42,0.06-0.63c0.09-0.21,0.24-0.31,0.43-0.31h3.41c1.37-3,2.64-5.5,3.81-7.51c1.18-2.01,2.26-3.37,3.24-4.07
	c0.99-0.7,1.7-1.05,2.13-1.05c0.44,0,0.75,0.04,0.94,0.11c0.87,0.42,1.31,1.28,1.31,2.59c0,1.31-0.44,2.89-1.31,4.75
	c-0.87,1.86-1.73,3.58-2.56,5.18h2.73c0.19,0,0.31,0.1,0.37,0.31c0.06,0.21,0.04,0.42-0.06,0.63c-0.1,0.21-0.24,0.31-0.43,0.31h-3.3
	c-2.09,3.53-4.61,6.66-7.57,9.39l-1.31,5.8c-0.11,0.49-0.17,0.98-0.17,1.45c0,0.48,0.13,0.96,0.4,1.45
	c0.27,0.49,0.68,0.74,1.25,0.74c0.64,0,1.37-0.23,2.16-0.68c1.82-1.37,3.83-4.23,6.03-8.59c0.15-0.34,0.33-0.55,0.54-0.63
	c0.21-0.08,0.33-0.03,0.37,0.14c0.04,0.17-0.02,0.45-0.17,0.82c-1.25,2.62-2.24,4.48-2.96,5.58c-2.05,3.3-4.23,4.95-6.54,4.95
	c-1.18,0-2.14-0.44-2.9-1.31C351.35,47.18,350.97,46.08,350.97,44.76z M361.67,28.94H359c-0.46,1.06-1.48,3.58-3.07,7.57
	C357.97,34.38,359.89,31.86,361.67,28.94z M362.41,27.69c2.5-4.48,3.76-7.59,3.76-9.33c0-0.76-0.13-1.14-0.4-1.14
	c-0.42,0-1.05,0.61-1.91,1.82c-0.85,1.21-2.29,4.1-4.3,8.65H362.41z"/>
<path fill="#231815" d="M374.13,29.39c2.77,0,4.15,1.75,4.15,5.23c0,1.59-0.42,3.3-1.25,5.12c-1.06,2.47-2.66,4.7-4.78,6.71
	c0.49,0.95,1.38,1.42,2.67,1.42c1.02,0,1.99-0.51,2.9-1.54c1.14-1.18,1.95-2.21,2.45-3.1c0.49-0.89,0.85-1.54,1.08-1.96
	c0.23-0.42,0.52-1.01,0.88-1.79c0.36-0.78,0.58-1.25,0.65-1.42c0.08-0.17,0.21-0.26,0.4-0.26c0.38-0.04,0.57,0.1,0.57,0.4
	c0,0.11-0.04,0.25-0.11,0.4l-0.34,0.8c-0.23,0.53-0.4,0.91-0.51,1.14s-0.31,0.64-0.6,1.22c-0.28,0.59-0.53,1.05-0.74,1.39
	c-0.21,0.34-0.49,0.8-0.85,1.37c-0.36,0.57-0.68,1.02-0.97,1.37c-0.28,0.34-0.64,0.72-1.05,1.14c-0.42,0.42-0.82,0.74-1.19,0.97
	c-0.95,0.57-1.84,0.85-2.67,0.85c-1.56,0-2.77-0.49-3.64-1.48c-1.75,1.29-3.36,1.93-4.84,1.93c-2.77,0-4.15-1.74-4.15-5.23
	c0-1.59,0.42-3.3,1.25-5.12c1.14-2.65,2.74-4.91,4.81-6.77C370.31,30.32,372.27,29.39,374.13,29.39z M374.76,31.16
	c-1.02,0-2.24,0.68-3.64,2.05c-1.4,1.37-2.66,3.22-3.76,5.58c-1.33,2.73-1.99,4.97-1.99,6.71c0,1.75,0.66,2.62,1.99,2.62
	c0.95,0,2.01-0.51,3.19-1.54c-0.61-0.87-0.91-1.8-0.91-2.79c0.08-1.63,0.74-2.45,1.99-2.45c0.49,0,0.9,0.17,1.22,0.51
	c0.32,0.34,0.48,0.65,0.48,0.94c0,0.28-0.04,0.58-0.11,0.88c0.64-0.95,1.38-2.29,2.22-4.04c0.95-1.93,1.42-3.83,1.42-5.69
	C376.86,32.09,376.16,31.16,374.76,31.16z"/>
<path fill="#231815" d="M407.93,29.39c2.77,0,4.15,1.75,4.15,5.23c0,1.59-0.42,3.3-1.25,5.12c-1.06,2.47-2.66,4.7-4.78,6.71
	c0.49,0.95,1.38,1.42,2.67,1.42c1.02,0,1.99-0.51,2.9-1.54c1.14-1.18,1.95-2.21,2.45-3.1c0.49-0.89,0.85-1.54,1.08-1.96
	c0.23-0.42,0.52-1.01,0.88-1.79c0.36-0.78,0.58-1.25,0.65-1.42c0.08-0.17,0.21-0.26,0.4-0.26c0.38-0.04,0.57,0.1,0.57,0.4
	c0,0.11-0.04,0.25-0.11,0.4l-0.34,0.8c-0.23,0.53-0.4,0.91-0.51,1.14s-0.31,0.64-0.6,1.22c-0.28,0.59-0.53,1.05-0.74,1.39
	c-0.21,0.34-0.49,0.8-0.85,1.37c-0.36,0.57-0.68,1.02-0.97,1.37c-0.28,0.34-0.64,0.72-1.05,1.14c-0.42,0.42-0.82,0.74-1.19,0.97
	c-0.95,0.57-1.84,0.85-2.67,0.85c-1.56,0-2.77-0.49-3.64-1.48c-1.75,1.29-3.36,1.93-4.84,1.93c-2.77,0-4.15-1.74-4.15-5.23
	c0-1.59,0.42-3.3,1.25-5.12c1.14-2.65,2.74-4.91,4.81-6.77C404.11,30.32,406.07,29.39,407.93,29.39z M408.56,31.16
	c-1.02,0-2.24,0.68-3.64,2.05c-1.4,1.37-2.66,3.22-3.76,5.58c-1.33,2.73-1.99,4.97-1.99,6.71c0,1.75,0.66,2.62,1.99,2.62
	c0.95,0,2.01-0.51,3.19-1.54c-0.61-0.87-0.91-1.8-0.91-2.79c0.08-1.63,0.74-2.45,1.99-2.45c0.49,0,0.9,0.17,1.22,0.51
	c0.32,0.34,0.48,0.65,0.48,0.94c0,0.28-0.04,0.58-0.11,0.88c0.64-0.95,1.38-2.29,2.22-4.04c0.95-1.93,1.42-3.83,1.42-5.69
	C410.66,32.09,409.96,31.16,408.56,31.16z"/>
<path fill="#231815" d="M414.64,46.01c0-1.63,0.7-3.6,2.1-5.92c-0.61,0-0.78-0.3-0.51-0.91l1.02-1.99c1.29-2.47,2.35-4.55,3.19-6.26
	c0.38-0.8,1.12-1.2,2.22-1.2h3.47c-1.37,0.99-2.74,2.89-4.13,5.72c-1.38,2.83-2.46,5.05-3.21,6.66c-0.76,1.61-1.14,2.84-1.14,3.67
	c0,0.83,0.14,1.42,0.43,1.76c0.28,0.34,0.67,0.51,1.17,0.51c0.72,0,1.73-0.76,3.02-2.28c2.01-2.35,4.84-7.3,8.48-14.85
	c0.42-0.8,1.16-1.2,2.22-1.2h3.07c-0.83,0.65-1.49,1.31-1.96,1.99c-0.47,0.68-1.13,1.9-1.96,3.64c-2.28,4.55-3.55,7.57-3.81,9.05
	c-0.11,0.53-0.17,1.02-0.17,1.48c0,1.21,0.42,1.86,1.25,1.93c2.05,0,4.57-3.17,7.57-9.5c0.23-0.53,0.46-0.74,0.68-0.63
	s0.34,0.27,0.34,0.46c0,0.19-0.17,0.63-0.51,1.31c-0.34,0.68-0.67,1.35-1,1.99c-0.32,0.65-0.82,1.53-1.48,2.65
	c-0.66,1.12-1.28,2-1.85,2.65c-1.48,1.67-2.93,2.5-4.35,2.5c-1.42,0-2.4-0.63-2.93-1.88c-0.23-0.57-0.34-1.29-0.34-2.16
	c0-0.87,0.19-1.95,0.57-3.24c-2.77,4.86-5.33,7.28-7.68,7.28c-2.05,0-3.24-0.85-3.58-2.56C414.7,46.5,414.64,46.27,414.64,46.01z"/>
<path fill="#231815" d="M444.63,26.49c0,1.71-1.08,3.32-3.24,4.84c0.76,0.04,1.77,0.06,3.04,0.06c1.27,0,2.87-0.09,4.81-0.28
	c0.08,0.11,0.11,0.42,0.11,0.91c0,0.49-0.23,1.22-0.68,2.19c-0.46,0.97-0.86,1.8-1.22,2.5c-0.36,0.7-0.7,1.37-1.02,1.99
	c-0.32,0.63-0.68,1.39-1.08,2.3c-0.4,0.91-0.73,1.75-1,2.5c-0.95,2.88-0.8,4.32,0.46,4.32c1.59,0,3.94-3.17,7.06-9.5
	c0.27-0.49,0.48-0.68,0.65-0.57c0.17,0.11,0.26,0.26,0.26,0.43c0,0.17-0.25,0.76-0.74,1.76c-0.49,1.01-1.02,2.04-1.59,3.1
	c-0.57,1.06-1.46,2.3-2.67,3.7c-1.44,1.75-2.83,2.62-4.15,2.62c-1.48,0-2.5-0.89-3.07-2.67c-0.11-0.34-0.17-0.85-0.17-1.54
	c0-0.68,0.22-1.59,0.65-2.73c0.44-1.14,1.13-2.52,2.08-4.15c0.95-1.63,1.48-2.59,1.59-2.87c0.11-0.28,0.17-0.56,0.17-0.83
	c0-1.18-1.52-1.8-4.55-1.88l-0.68,1.82c-2.39,6.26-4.69,10.45-6.88,12.57c-0.38,0.34-0.57,0.23-0.57-0.34c0-0.11,0.04-0.25,0.11-0.4
	c2.12-2.81,3.96-6.13,5.52-9.96c1.56-3.83,2.64-7.47,3.24-10.92c0.23-1.18,0.76-1.76,1.59-1.76c0.83,0,1.44,0.53,1.82,1.59
	C444.57,25.64,444.63,26.04,444.63,26.49z"/>
<path fill="#231815" d="M148.25,127.36c0,10.58,4.29,15.88,12.87,15.88c8.02,0,17.94-4.74,29.75-14.21
	c12.92-10.25,21.78-21.06,26.58-32.42c5.46-12.81,8.19-23.73,8.19-32.76c0-9.02-1.81-15.82-5.43-20.39
	c-3.62-4.57-8.61-6.85-14.96-6.85c-1.45,0-2.95,0.11-4.51,0.33c-2.67,0.67-4.65,1-5.93,1c-1.28,0-1.92-0.33-1.92-1
	c0-1,1.03-1.95,3.09-2.84c2.06-0.89,3.62-1.34,4.68-1.34c1.06,0,1.92,0,2.59,0c0.67,0,1.45,0,2.34,0c6.35,0,12.17,2.51,17.47,7.52
	c5.29,5.01,8.72,12.37,10.28,22.06c0.33,2.34,0.5,4.74,0.5,7.19c0,8.25-1.95,17.61-5.85,28.08c-5.46,13.82-14.85,25.57-28.16,35.27
	c-13.32,9.69-25.55,14.54-36.69,14.54c-11.59,0-18.72-5.35-21.39-16.04c-0.78-2.78-1.17-6.57-1.17-11.37
	c0-4.79,1.17-11.03,3.51-18.72c-6.02,10.03-13.82,20.89-23.4,32.59c-5.24,6.24-10.59,11.42-16.04,15.54
	c-5.79,4.35-10.7,6.52-14.71,6.52c-7.91,0-11.87-4.79-11.87-14.37c0-11.25,7.3-34.21,21.89-68.86
	c9.14-22.06,13.71-38.61,13.71-49.64c0-7.13-2.15-12.06-6.43-14.79c-4.29-2.73-9.39-4.09-15.29-4.09c-2.56,0-5.24,0.28-8.02,0.83
	C64.18,9.03,46.68,19.67,31.42,36.94c-7.58,8.69-12.82,17.02-15.71,24.99c-2.9,7.97-4.54,13.87-4.93,17.72
	c-0.39,3.85-0.59,7.02-0.59,9.53c0,2.51,0.47,5.38,1.42,8.61c0.95,3.23,2.59,6.24,4.93,9.03c4.34,5.01,10.42,7.52,18.22,7.52
	c12.93,0,23.17-6.74,30.75-20.22c3.9-6.91,5.85-13.14,5.85-18.72c0-9.13-4.07-13.71-12.2-13.71c-1.34,0-3.01,0.17-5.01,0.5
	c-2.01,0.33-2.95,0.11-2.84-0.67c0.11-0.78,1.61-1.61,4.51-2.51c2.9-0.89,5.79-1.34,8.69-1.34c5.79,0,10.03,2.23,12.7,6.69
	c1.67,2.79,2.51,6.07,2.51,9.86c0,3.79-1.06,8.19-3.18,13.2c-5.68,13.04-15.88,22.62-30.59,28.75c-3.9,1.67-7.52,2.51-10.86,2.51
	c-10.92,0-19.61-3.9-26.07-11.7c-4.57-5.35-7.46-12.26-8.69-20.72C0.11,84.57,0,82.85,0,81.06c0-7.13,1.81-14.85,5.43-23.15
	c3.62-8.3,8.55-16.01,14.79-23.15c6.24-7.13,13.04-13.09,20.39-17.88c7.35-4.79,15.1-8.8,23.23-12.03C72.31,1.62,80.17,0,87.41,0
	c7.24,0,13.81,1.12,19.72,3.34c10.7,4.68,16.04,13.65,16.04,26.91c0,10.92-3.73,24.85-11.2,41.78
	c-5.13,11.48-10.03,23.79-14.71,36.94c-6.69,18.72-10.03,30.92-10.03,36.6c0,4.01,1.39,6.02,4.18,6.02c1.45,0,3.18-0.67,5.18-2.01
	c6.02-3.57,12.59-10.31,19.72-20.22c7.13-9.91,14.54-21.45,22.23-34.6c7.69-13.15,13.15-21.95,16.38-26.41
	c3.23-4.46,6.02-6.69,8.36-6.69c0.56,0,1.11,0.11,1.67,0.33c1.45,0.78,2.17,2.29,2.17,4.51c0,2.23-0.31,4.24-0.92,6.02
	c-0.61,1.78-3.48,8.89-8.61,21.31c-5.13,12.42-7.97,20.61-8.52,24.57C148.53,122.37,148.25,125.35,148.25,127.36z"/>
<path fill="#231815" d="M241,115.98c-1.01,2.45-1.52,5.2-1.52,8.23c0,2.02,0.45,3.63,1.35,4.82c0.9,1.19,2.18,1.79,3.84,1.79
	c6.57,0,12.52-6.17,17.86-18.51c0.5-1.15,1.12-1.66,1.84-1.52c0.29,0.07,0.43,0.25,0.43,0.54c0,0.29-0.81,2.18-2.44,5.68
	c-1.62,3.5-3.27,6.33-4.93,8.5c-3.68,5.05-8.23,7.58-13.64,7.58c-2.89,0-5.34-0.94-7.36-2.82c-2.02-1.88-3.03-4.44-3.03-7.69
	s0.77-6.69,2.33-10.34c1.55-3.64,3.66-7.04,6.33-10.18c2.67-3.14,5.74-5.43,9.2-6.88c1.66-0.72,3.25-1.08,4.76-1.08
	c1.52,0,2.92,0.43,4.22,1.3c1.23,1.01,1.84,2.13,1.84,3.36c0,4.33-2.6,8.48-7.8,12.45c-1.59,1.23-3.83,2.33-6.71,3.3
	C244.72,115.49,242.52,115.98,241,115.98z M259.19,98.65c0-1.44-0.58-2.16-1.73-2.16c-2.02,0-5.09,2.49-9.2,7.47
	c-2.45,3.03-4.62,6.43-6.5,10.18c1.23,0,3.01-0.43,5.36-1.3c2.34-0.87,4.38-2.02,6.12-3.46
	C257.21,105.98,259.19,102.41,259.19,98.65z"/>
<path fill="#231815" d="M285.72,126.37c0,2.31,0.94,3.46,2.82,3.46c3.39,0,7.9-5.67,13.53-17c0.22-0.43,0.42-0.87,0.6-1.3
	c0.18-0.43,0.47-0.72,0.87-0.87c0.4-0.14,0.67-0.05,0.81,0.27c0.14,0.32,0.07,0.85-0.22,1.57c-5.78,13.43-11.62,20.14-17.54,20.14
	c-1.95,0-3.5-0.87-4.66-2.6c-1.16-1.73-1.73-3.45-1.73-5.14c0-1.69,0.18-3.26,0.54-4.71c-4.19,6.93-7.8,10.86-10.83,11.8
	c-0.87,0.36-1.72,0.54-2.54,0.54c-0.83,0-1.64-0.11-2.44-0.32c-3.54-0.94-5.31-3.75-5.31-8.45c0-3.17,0.81-6.69,2.44-10.56
	c1.62-3.86,3.92-7.56,6.88-11.1c2.96-3.54,6.53-5.92,10.72-7.15c1.52-0.5,3.3-0.76,5.36-0.76s4.35,0.65,6.88,1.95
	c4.91-9.24,9.09-17.79,12.56-25.66c1.01-2.38,2-3.91,2.98-4.6c0.97-0.69,1.88-1.03,2.71-1.03c0.83,0,1.34,0,1.52,0
	c0.18,0,0.87,0.09,2.06,0.27c1.19,0.18,2.11,0.24,2.76,0.16c-1.66,1.52-6.06,8.88-13.21,22.09c-9.09,16.89-14.58,28.15-16.46,33.78
	C286.08,123.27,285.72,125,285.72,126.37z M291.02,97.89c-0.94-0.94-2.26-1.41-3.95-1.41c-1.7,0-4.06,1.26-7.09,3.79
	c-4.84,4.04-8.84,9.02-12.02,14.94c-2.09,3.9-3.14,7.11-3.14,9.64c0,1.15,0.23,2.2,0.7,3.14c0.47,0.94,1.21,1.41,2.22,1.41
	c2.45,0,5.48-2.53,9.1-7.58C280.45,116.77,285.17,108.79,291.02,97.89z"/>
<path fill="#231815" d="M325.45,126.37c0,2.31,0.94,3.46,2.82,3.46c3.39,0,7.9-5.67,13.53-17c0.22-0.43,0.42-0.87,0.6-1.3
	c0.18-0.43,0.47-0.72,0.87-0.87c0.4-0.14,0.67-0.05,0.81,0.27c0.14,0.32,0.07,0.85-0.22,1.57c-5.78,13.43-11.62,20.14-17.54,20.14
	c-1.95,0-3.5-0.87-4.66-2.6c-1.16-1.73-1.73-3.45-1.73-5.14c0-1.69,0.18-3.26,0.54-4.71c-4.19,6.93-7.8,10.86-10.83,11.8
	c-0.87,0.36-1.72,0.54-2.54,0.54c-0.83,0-1.64-0.11-2.44-0.32c-3.54-0.94-5.31-3.75-5.31-8.45c0-3.17,0.81-6.69,2.44-10.56
	c1.62-3.86,3.92-7.56,6.88-11.1c2.96-3.54,6.53-5.92,10.72-7.15c1.52-0.5,3.3-0.76,5.36-0.76s4.35,0.65,6.88,1.95
	c4.91-9.24,9.09-17.79,12.56-25.66c1.01-2.38,2-3.91,2.98-4.6c0.97-0.69,1.88-1.03,2.71-1.03c0.83,0,1.34,0,1.52,0
	c0.18,0,0.87,0.09,2.06,0.27c1.19,0.18,2.11,0.24,2.76,0.16c-1.66,1.52-6.06,8.88-13.21,22.09c-9.09,16.89-14.58,28.15-16.46,33.78
	C325.81,123.27,325.45,125,325.45,126.37z M330.75,97.89c-0.94-0.94-2.26-1.41-3.95-1.41c-1.7,0-4.06,1.26-7.09,3.79
	c-4.84,4.04-8.84,9.02-12.02,14.94c-2.09,3.9-3.14,7.11-3.14,9.64c0,1.15,0.23,2.2,0.7,3.14c0.47,0.94,1.21,1.41,2.22,1.41
	c2.45,0,5.48-2.53,9.1-7.58C320.18,116.77,324.91,108.79,330.75,97.89z"/>
<path fill="#231815" d="M346.56,130.27c1.37,0,2.82-0.68,4.33-2.06c2.67-2.67,6.06-8.12,10.18-16.35c0.5-1.08,1.01-1.41,1.52-0.97
	c0.14,0.15,0.22,0.38,0.22,0.7c0,0.32-0.29,1.12-0.87,2.38c-0.58,1.26-1.1,2.4-1.57,3.41c-0.47,1.01-1.37,2.65-2.71,4.93
	c-1.34,2.27-2.54,4.02-3.63,5.25c-2.96,3.39-5.76,5.09-8.39,5.09c-2.63,0-4.53-0.79-5.68-2.38c-1.16-1.59-1.73-3.36-1.73-5.31
	c0-1.95,0.47-4.08,1.41-6.39l6.93-17.65c0.14-0.43,0.22-1.01,0.22-1.73c0-0.72-0.43-1.66-1.3-2.82l5.95-0.11
	c1.66,0,2.63,0.31,2.92,0.92c0.29,0.61,0.07,1.57-0.65,2.87l-8.66,20.25c-1.23,2.67-1.84,4.95-1.84,6.82
	C343.21,129.22,344.32,130.27,346.56,130.27z M357.17,90.53c-1.01,0.87-2.13,1.3-3.36,1.3c-1.23,0-2.2-0.43-2.92-1.3
	c-0.72-0.87-1.01-1.91-0.87-3.14c0.22-1.23,0.83-2.27,1.84-3.14c1.01-0.87,2.13-1.3,3.36-1.3s2.22,0.43,2.98,1.3
	c0.76,0.87,1.03,1.91,0.81,3.14C358.8,88.62,358.18,89.67,357.17,90.53z"/>
<path fill="#231815" d="M393.88,97.14c-8.88,15.59-13.32,25.77-13.32,30.53c0,1.88,0.69,2.81,2.06,2.81
	c3.68,0,8.62-6.24,14.83-18.73c0.43-1.01,0.87-1.41,1.3-1.19c0.43,0.22,0.65,0.51,0.65,0.87c0,0.36-0.15,0.8-0.43,1.3
	c-3.83,7.72-7.06,13.05-9.69,15.97c-2.64,2.92-5.27,4.38-7.9,4.38c-2.64,0-4.64-1.01-6.01-3.03c-0.72-0.94-1.08-2.22-1.08-3.84
	s0.36-3.59,1.08-5.9c0.72-2.31,2.71-6.06,5.95-11.26c0.79-1.3,1.19-2.33,1.19-3.09c0-0.76-0.61-1.14-1.84-1.14
	c-1.23,0-3.57,1.62-7.04,4.87c-5.2,4.76-10.21,11.91-15.05,21.44c-0.43,0.72-0.92,1.17-1.46,1.35c-0.54,0.18-1.61,0.31-3.19,0.38
	c-1.59,0.07-2.63,0.25-3.14,0.54c1.16-2.31,3.43-7.04,6.82-14.18c6.06-12.63,10.03-19.85,11.91-21.65c0.87-0.87,2.06-1.3,3.57-1.3
	c0.29,0,1.03,0.11,2.22,0.32c1.19,0.22,2.07,0.25,2.65,0.11c-2.67,1.44-7.04,8.23-13.1,20.35c3.39-4.19,6.48-7.52,9.26-10.02
	c2.78-2.49,6.12-4.8,10.01-6.93c3.9-2.13,6.75-3.19,8.55-3.19C393.12,96.92,393.51,96.99,393.88,97.14z"/>
<path fill="#231815" d="M389.98,166.86c-6.78,0-10.18-2.78-10.18-8.34c0-4.62,3.14-8.77,9.42-12.45c5.34-3.1,12.16-6.03,20.46-8.77
	c3.83-1.23,6.61-2.2,8.34-2.92c1.88-5.48,2.82-11.48,2.82-17.97c0-1.3-0.07-2.27-0.22-2.92c-2.02,4.11-4.8,8.34-8.34,12.67
	c-4.19,5.2-8.34,7.22-12.45,6.06c-3.75-1.59-5.63-4.69-5.63-9.31c0-6.21,3.1-13.03,9.31-20.46c3.39-4.04,7.36-6.61,11.91-7.69
	c1.23-0.36,2.45-0.54,3.68-0.54c3.25,0,6.42,1.08,9.53,3.25c1.15,0.94,1.73,1.73,1.73,2.38s-0.22,1.28-0.65,1.89
	c-0.43,0.61-0.88,0.69-1.35,0.22c-0.47-0.47-0.78-0.92-0.92-1.35c-0.94-2.67-2.45-4.01-4.55-4.01c-3.83,0-8.12,2.67-12.88,8.01
	c-2.67,3.03-4.98,6.28-6.93,9.74c-2.38,4.33-3.57,7.67-3.57,10.01c0,2.35,0.72,3.92,2.17,4.71c0.5,0.22,1.01,0.33,1.52,0.33
	c1.66,0,3.74-1.14,6.23-3.41c2.49-2.27,4.8-5.16,6.93-8.66c2.13-3.5,3.48-6.23,4.06-8.17c0.58-1.95,1.28-3.18,2.11-3.68
	c0.83-0.5,1.75-0.79,2.76-0.87c1.01-0.07,1.69-0.25,2.06-0.54c0.58,3.25,0.87,7.06,0.87,11.42c0,4.37-0.76,9.33-2.27,14.89
	c3.32-2.38,5.68-4.51,7.09-6.39c1.41-1.88,2.53-3.57,3.36-5.09c0.83-1.52,1.57-3.01,2.22-4.49c0.65-1.48,1.08-2.44,1.3-2.87
	c0.22-0.43,0.58-0.7,1.08-0.81c0.5-0.11,0.76,0.13,0.76,0.7c0,0.36-0.11,0.8-0.32,1.3c-3.18,6.57-5.83,11.31-7.96,14.24
	c-2.13,2.92-5.03,5.25-8.72,6.98c-1.73,4.91-4.24,9.78-7.52,14.62c-3.29,4.84-7.42,9.1-12.4,12.78
	C399.83,165.02,394.88,166.86,389.98,166.86z M382.07,160.58c0,2.74,1.77,4.11,5.31,4.11c2.09,0,4.46-0.61,7.09-1.84
	c2.63-1.23,4.82-2.49,6.55-3.79c2.96-2.38,6.21-5.92,9.74-10.61c2.67-3.75,4.73-7.4,6.17-10.94l-3.79,1.3
	c-11.26,3.9-19.2,7.36-23.82,10.39c-3.39,2.24-5.63,5.09-6.71,8.55C382.25,158.85,382.07,159.79,382.07,160.58z"/>
<text transform="matrix(1 0 0 1 439.6414 139.4219)" fill="#231815" font-family="'GreatVibes-Regular'" font-size="62.9537px">.</text>
</svg>
