<?xml version="1.0" encoding="utf-8"?>
<!-- Generator: Adobe Illustrator 16.0.3, SVG Export Plug-In . SVG Version: 6.00 Build 0)  -->
<!DOCTYPE svg PUBLIC "-//W3C//DTD SVG 1.1//EN" "http://www.w3.org/Graphics/SVG/1.1/DTD/svg11.dtd">
<svg version="1.1" id="レイヤー_1" xmlns="http://www.w3.org/2000/svg" xmlns:xlink="http://www.w3.org/1999/xlink" x="0px"
	 y="0px" width="116px" height="116px" viewBox="0 0 116 116" enable-background="new 0 0 116 116" xml:space="preserve">
<g>
	<g>
		<rect x="16.242" y="61.73" fill="none" width="83.516" height="45.012"/>
		<path fill="#020000" d="M34.163,72.457c-1.837-0.99-4.356-2.161-6.319-2.936v9.003h-1.352V62.878l1.819,0.108
			c-0.019,0.197-0.162,0.324-0.468,0.378v5.258l0.27-0.379c2.107,0.774,4.897,2.017,6.77,3.007L34.163,72.457z"/>
		<path fill="#020000" d="M42.152,67.703c0.54,1.099,1.135,2.827,1.35,3.871l-1.008,0.271c-0.216-1.044-0.773-2.683-1.314-3.835
			L42.152,67.703z M52.901,67.829c-0.036,0.162-0.216,0.198-0.378,0.181c-1.404,5.257-4.051,8.48-8.408,10.245
			c-0.145-0.217-0.469-0.631-0.703-0.829c4.304-1.692,6.771-4.645,8.085-10.011L52.901,67.829z M46.527,66.839
			c0.379,1.207,0.721,2.936,0.846,4.088l-1.062,0.197c-0.108-1.152-0.45-2.809-0.847-4.051L46.527,66.839z"/>
		<path fill="#020000" d="M58.369,65.057h11.452l0.108-0.054l1.224,0.936c-0.054,0.072-0.108,0.126-0.216,0.162
			c-1.459,6.771-4.592,10.3-10.102,12.388c-0.197-0.324-0.558-0.792-0.81-1.063c5.239-1.926,8.265-5.275,9.435-11.127H58.369V65.057
			z M72.09,61.834c1.08,0,1.963,0.882,1.963,1.98c0,1.08-0.883,1.962-1.963,1.962c-1.098,0-1.98-0.882-1.98-1.962
			C70.109,62.68,71.027,61.834,72.09,61.834z M73.458,63.814c0-0.774-0.612-1.387-1.368-1.387s-1.387,0.612-1.387,1.387
			c0,0.756,0.631,1.386,1.387,1.386C72.882,65.2,73.458,64.534,73.458,63.814z"/>
		<path fill="#020000" d="M78.564,70.962c0.757-0.72,2.611-2.683,3.566-3.709c1.386-1.53,2.07-1.872,2.971-1.872
			c1.08,0,1.854,0.684,3.457,2.593c1.277,1.548,4.23,4.843,6.787,7.184l-0.953,1.116c-2.467-2.232-5.402-5.6-6.482-6.949
			c-1.531-1.873-2.089-2.593-2.827-2.593c-0.72,0-1.278,0.594-2.376,1.836c-0.613,0.702-2.071,2.305-2.846,3.169
			c0.018,0.234-0.054,0.414-0.197,0.504L78.564,70.962z"/>
		<path fill="#020000" d="M54.954,98.52h-6.067c1.008,2.574,3.168,3.997,6.625,4.519c-0.252,0.253-0.576,0.738-0.738,1.081
			c-3.528-0.685-5.725-2.233-6.877-5.06c-0.738,2.467-2.359,4.159-6.356,5.095c-0.108-0.306-0.414-0.773-0.647-1.008
			c3.744-0.811,5.238-2.305,5.887-4.627h-5.113c-0.288,1.854-0.9,3.763-2.07,5.257c-0.217-0.198-0.738-0.54-1.063-0.666
			c1.98-2.467,2.215-5.905,2.215-8.408v-3.764h12.981v4.25h-5.798v0.018l0.9,0.054c0,0.126-0.145,0.217-0.378,0.252
			c-0.054,0.685-0.126,1.314-0.216,1.927h6.716V98.52z M55.044,88.4v1.116h-15.88V88.4H55.044z M41.954,95.188
			c-0.019,0.702-0.054,1.458-0.144,2.25h5.203c0.126-0.684,0.198-1.44,0.252-2.25H41.954z M52.541,91.929H41.954v2.27h10.587V91.929
			z"/>
		<path fill="#020000" d="M66.688,95.278c1.188-0.612,3.043-1.045,4.465-1.045c2.863,0,4.664,1.675,4.664,4.321
			c0,3.26-2.863,5.06-6.482,5.06c-2.341,0-3.943-0.936-3.943-2.521c0-1.332,1.314-2.412,2.953-2.412c2.034,0,3.402,1.62,3.673,3.259
			c1.44-0.54,2.485-1.692,2.485-3.367c0-1.944-1.441-3.188-3.709-3.188c-2.701,0-5.348,1.207-6.537,2.359
			c-0.539,0.504-1.242,1.26-1.729,1.818l-0.918-0.918c1.621-1.692,6.77-6.608,9.219-8.896c-1.045,0.145-4.645,0.289-6.697,0.36
			c-0.055,0.126-0.234,0.234-0.379,0.271l-0.145-1.53c2.432-0.019,7.076-0.198,8.391-0.396l0.271-0.126l0.954,1.17
			c-0.09,0.072-0.252,0.145-0.432,0.162c-1.279,1.045-4.699,4.25-6.104,5.6V95.278z M69.172,102.48c0.54,0,1.17-0.072,1.639-0.181
			c-0.198-1.386-1.225-2.557-2.557-2.557c-0.937,0-1.766,0.505-1.766,1.333C66.488,102.174,67.983,102.48,69.172,102.48z"/>
	</g>
	<g>
		<path fill="#020000" d="M85.364,44.116l-2.796,2.799c-0.336,0.336-0.785,0.558-1.29,0.558c-0.445,0-0.951-0.222-1.286-0.558
			L58.007,24.928L36.021,46.915c-0.336,0.336-0.842,0.558-1.287,0.558c-0.447,0-0.953-0.222-1.289-0.558l-2.797-2.799
			c-0.335-0.336-0.56-0.838-0.56-1.286c0-0.447,0.225-0.95,0.56-1.286L56.72,15.473c0.336-0.337,0.839-0.559,1.287-0.559
			c0.447,0,0.949,0.222,1.285,0.559l26.072,26.071c0.336,0.336,0.56,0.839,0.56,1.286C85.924,43.278,85.7,43.78,85.364,44.116z"/>
	</g>
</g>
<rect fill="none" width="116" height="116"/>
</svg>
