<?xml version="1.0" encoding="utf-8"?>
<!-- Generator: Adobe Illustrator 16.0.3, SVG Export Plug-In . SVG Version: 6.00 Build 0)  -->
<!DOCTYPE svg PUBLIC "-//W3C//DTD SVG 1.1//EN" "http://www.w3.org/Graphics/SVG/1.1/DTD/svg11.dtd">
<svg version="1.1" id="レイヤー_1" xmlns="http://www.w3.org/2000/svg" xmlns:xlink="http://www.w3.org/1999/xlink" x="0px"
	 y="0px" width="116px" height="116px" viewBox="0 0 116 116" enable-background="new 0 0 116 116" xml:space="preserve">
<g>
	<g>
		<path fill="#020000" d="M78.975,48.237c-0.654,1.526-2.399,2.523-3.801,3.303c-1.838,0.997-3.708,1.589-5.795,1.589
			c-2.898,0-5.515-1.184-8.164-2.15c-1.901-0.685-3.739-1.526-5.453-2.586c-5.297-3.271-11.685-9.658-14.956-14.956
			c-1.06-1.713-1.901-3.552-2.586-5.452c-0.966-2.648-2.15-5.266-2.15-8.164c0-2.087,0.592-3.957,1.589-5.795
			c0.779-1.402,1.776-3.147,3.303-3.802c1.028-0.467,3.209-0.966,4.331-0.966c0.218,0,0.437,0,0.655,0.094
			c0.654,0.218,1.339,1.745,1.651,2.368c0.997,1.775,1.963,3.583,2.991,5.328c0.499,0.81,1.433,1.807,1.433,2.772
			c0,1.901-5.64,4.674-5.64,6.356c0,0.842,0.779,1.933,1.215,2.68c3.147,5.671,7.073,9.597,12.744,12.744
			c0.748,0.437,1.838,1.215,2.68,1.215c1.683,0,4.456-5.64,6.356-5.64c0.966,0,1.963,0.935,2.773,1.434
			c1.745,1.028,3.552,1.994,5.328,2.991c0.623,0.312,2.15,0.997,2.368,1.651c0.093,0.218,0.093,0.437,0.093,0.654
			C79.94,45.028,79.442,47.209,78.975,48.237z"/>
	</g>
	<g>
		<rect x="16.243" y="61.73" fill="none" width="83.515" height="45.012"/>
		<path fill="#020000" d="M35.521,70.53v-4.285h-5.924v2.629h-1.098v-3.529h7.022v-1.206h-5.996v-0.973h13.288v0.973h-6.104v1.206
			h7.166v3.529h-1.152v-2.629h-6.014v4.285H35.521z M36.637,77.192c0,0.612,0.234,0.738,1.405,0.738h4.195
			c0.991,0,1.152-0.324,1.261-2.215c0.27,0.18,0.72,0.342,1.062,0.414c-0.18,2.232-0.576,2.791-2.25,2.791h-4.321
			c-1.945,0-2.503-0.324-2.503-1.747v-0.63h-4.267v0.954h-1.17V71.16h12.352v5.384h-5.762V77.192z M30.245,70.008v-0.81h4.285v0.81
			H30.245z M30.605,67.325h3.907v0.811h-3.907V67.325z M35.484,72.079h-4.267v1.332h4.267V72.079z M31.217,75.626h4.267v-1.368
			h-4.267V75.626z M41.192,73.411v-1.332h-4.556v1.332H41.192z M36.637,75.626h4.556v-1.368h-4.556V75.626z M37.735,67.325h3.997
			v0.811h-3.997V67.325z M37.735,70.008v-0.81h4.447v0.81H37.735z"/>
		<path fill="#020000" d="M49.612,66.479v-1.025h6.752v1.025H49.612z M55.824,72.943v5.293h-4.321v0.847H50.44v-6.14H55.824z
			 M55.77,67.974v0.99h-5.312v-0.99H55.77z M50.458,71.448v-0.99h5.312v0.99H50.458z M55.752,63.021v0.991h-5.186v-0.991H55.752z
			 M54.744,73.969h-3.241v3.241h3.241V73.969z M66.555,68.981h-4.429v3.079h3.475v6.933h-1.207v-0.811h-5.618v0.937h-1.152v-7.059
			h3.277v-3.079H56.49v-1.152h4.411v-3.133c-1.224,0.198-2.502,0.36-3.691,0.486c-0.054-0.288-0.216-0.738-0.36-1.009
			c2.791-0.323,6.086-0.882,7.905-1.53l1.008,1.045c-0.036,0.036-0.108,0.054-0.18,0.054c-0.054,0-0.108,0-0.18-0.018
			c-0.864,0.288-2.017,0.54-3.277,0.773v3.331h4.429V68.981z M64.395,77.066v-3.89h-5.618v3.89H64.395z"/>
		<path fill="#020000" d="M72.311,64.805c1.35-0.055,12.441-0.847,14.782-0.864l0.018,1.351c-0.234-0.019-0.45-0.019-0.666-0.019
			c-1.044,0-1.927,0.181-3.079,0.919c-2.701,1.62-5.312,4.519-5.312,6.842c0,2.521,1.765,4.015,6.23,4.591l-0.594,1.261
			c-5.114-0.738-7.022-2.646-7.022-5.852c0-2.539,2.503-5.618,5.798-7.688c-1.98,0.144-7.292,0.54-9.615,0.756
			c-0.054,0.145-0.252,0.271-0.396,0.288L72.311,64.805z M83.978,68.352c0.864,0.648,1.891,1.711,2.449,2.484l-0.684,0.559
			c-0.504-0.792-1.603-1.908-2.377-2.503L83.978,68.352z M85.922,66.768c0.882,0.647,1.927,1.692,2.449,2.484l-0.684,0.54
			c-0.486-0.72-1.53-1.837-2.377-2.484L85.922,66.768z"/>
		<path fill="#020000" d="M21.291,92.47v1.746c0.63,0.63,2.341,2.61,2.737,3.097l-0.756,0.99c-0.36-0.612-1.26-1.8-1.98-2.7v8.462
			h-1.17v-9.057c-0.738,2.197-1.747,4.34-2.773,5.636c-0.144-0.342-0.45-0.81-0.666-1.099c1.296-1.548,2.629-4.482,3.295-7.075
			h-2.881v-1.152h3.025v-3.962l1.513,0.108c-0.018,0.126-0.108,0.198-0.342,0.234v3.619h2.683v1.152H21.291z M24.802,88.454h8.174
			v15.467H31.77v-1.08h-5.797v1.134h-1.17V88.454z M31.77,89.624h-5.797v3.205h5.797V89.624z M25.972,93.945v3.313h5.797v-3.313
			H25.972z M25.972,101.724h5.797v-3.349h-5.797V101.724z"/>
		<path fill="#020000" d="M45.447,90.417v1.008h-6.752v-1.008H45.447z M44.871,97.763v5.294h-4.285v0.846h-1.063v-6.14H44.871z
			 M44.835,92.865v0.99h-5.293v-0.99H44.835z M39.542,96.305v-0.99h5.293v0.99H39.542z M44.781,88.021v0.991h-5.167v-0.991H44.781z
			 M43.791,98.789h-3.205v3.241h3.205V98.789z M51.515,94.972c-0.018,0.145-0.162,0.253-0.396,0.307v2.232
			c0,1.009,0.594,4.105,4.483,5.563c-0.234,0.288-0.576,0.738-0.72,1.026c-2.917-1.134-4.123-3.583-4.375-4.682
			c-0.252,1.117-1.531,3.476-4.879,4.682c-0.144-0.252-0.468-0.72-0.702-0.954c4.375-1.53,4.969-4.592,4.969-5.636V94.9l0.63,0.035
			L51.515,94.972z M48.202,96.683c-0.234,1.387-0.829,2.791-1.854,3.565l-0.955-0.595c0.9-0.63,1.495-1.891,1.729-3.205
			L48.202,96.683z M51.533,87.481c-0.018,0.145-0.144,0.234-0.36,0.271c-0.09,1.351-0.216,2.539-0.504,3.565
			c1.638,0.972,3.673,2.305,4.735,3.223l-0.811,0.937c-0.918-0.864-2.719-2.125-4.303-3.115c-0.684,1.458-1.873,2.521-4.087,3.259
			c-0.126-0.288-0.432-0.72-0.702-0.954c3.781-1.152,4.339-3.349,4.519-7.292L51.533,87.481z M45.861,91.641
			c0.756-0.63,1.278-1.836,1.44-3.024l1.026,0.216c-0.18,1.225-0.667,2.539-1.548,3.277L45.861,91.641z M52.235,91.479
			c0.54-0.792,1.242-2.07,1.621-2.952l1.332,0.558c-0.054,0.108-0.198,0.162-0.378,0.145c-0.414,0.792-1.134,1.927-1.692,2.665
			L52.235,91.479z M55.422,96.898c-0.054,0.108-0.18,0.162-0.378,0.162c-0.45,0.847-1.224,2.106-1.854,2.899l-0.9-0.433
			c0.576-0.828,1.351-2.232,1.765-3.205L55.422,96.898z"/>
		<path fill="#020000" d="M76.32,94.198l0.9,0.216c-0.054,0.198-2.269,3.205-4.321,4.879l-0.99-0.63
			c1.008-0.811,2.196-2.089,3.133-3.295H69.82c-0.036,0.108-0.126,0.162-0.36,0.198v7.04c0,0.774-0.198,1.134-0.811,1.332
			c-0.612,0.181-1.674,0.181-3.277,0.181c-0.072-0.343-0.288-0.828-0.468-1.171c0.774,0.019,1.495,0.036,2.053,0.036
			c1.17,0,1.26,0,1.26-0.396v-7.22h-7.436v-1.152h9.687c-1.513-0.954-3.745-2.017-5.618-2.683l0.828-0.883
			c1.116,0.379,2.376,0.9,3.547,1.459c1.207-0.685,2.539-1.639,3.529-2.521H62.492v-1.135h11.146c0.342,0,0.378,0,0.63-0.072
			l1.081,0.721c-0.072,0.071-0.198,0.126-0.324,0.144c-1.17,1.135-2.953,2.485-4.591,3.476c0.702,0.378,1.333,0.756,1.818,1.098
			l-0.342,0.396h4.159L76.32,94.198z"/>
		<path fill="#020000" d="M84.83,98.105c-0.036,0.107-0.144,0.18-0.36,0.18c-0.288,1.53-0.792,3.259-1.404,4.321
			c-0.216-0.145-0.648-0.342-0.918-0.468c0.594-1.009,1.044-2.737,1.333-4.376L84.83,98.105z M86.829,87.932
			c-0.09,0.126-0.234,0.162-0.378,0.145c-0.558,1.044-1.458,2.503-2.214,3.529c0.486,0.468,0.936,0.936,1.26,1.35
			c0.882-1.224,1.729-2.502,2.323-3.547l1.296,0.612c-0.054,0.108-0.198,0.145-0.396,0.145c-1.008,1.566-2.593,3.69-3.998,5.257
			c1.152-0.018,2.395-0.036,3.655-0.071c-0.36-0.595-0.774-1.207-1.188-1.711c0.504-0.271,0.702-0.36,0.882-0.468
			c0.918,1.134,1.891,2.646,2.269,3.637l-0.936,0.54c-0.126-0.306-0.288-0.666-0.504-1.063l-2.088,0.108v7.706h-1.134v-7.652
			c-1.116,0.036-2.125,0.09-2.917,0.108c-0.036,0.144-0.144,0.216-0.27,0.234l-0.324-1.351h1.351
			c0.432-0.486,0.882-1.026,1.333-1.621c-0.576-0.773-1.603-1.782-2.485-2.502l0.594-0.774c0.18,0.144,0.36,0.288,0.558,0.432
			c0.702-1.044,1.53-2.538,1.999-3.601L86.829,87.932z M88.971,101.67c-0.198-0.973-0.774-2.484-1.333-3.619l0.972-0.342
			c0.576,1.134,1.17,2.61,1.405,3.583L88.971,101.67z M98.01,90.776l0.648,0.072c0,0.108-0.018,0.271-0.036,0.396
			c-0.288,8.444-0.576,11.271-1.296,12.153c-0.486,0.595-0.972,0.702-2.215,0.702c-0.612,0-1.35-0.018-2.07-0.072
			c-0.036-0.342-0.162-0.828-0.396-1.152c1.243,0.108,2.377,0.126,2.827,0.126c0.36,0,0.594-0.054,0.792-0.287
			c0.594-0.631,0.9-3.422,1.17-10.75H91.78c-0.486,1.116-1.044,2.125-1.62,2.899c-0.234-0.181-0.685-0.486-0.99-0.648
			c1.206-1.566,2.25-4.249,2.881-6.86l1.512,0.396c-0.036,0.162-0.198,0.216-0.396,0.198c-0.252,0.954-0.558,1.908-0.918,2.845
			h5.492L98.01,90.776z M92.122,94.756c1.044,1.314,2.161,3.061,2.593,4.231l-1.063,0.576c-0.414-1.152-1.494-2.971-2.521-4.304
			L92.122,94.756z"/>
	</g>
</g>
<rect fill="none" width="116" height="116"/>
</svg>
