<?xml version="1.0" encoding="utf-8"?>
<!-- Generator: Adobe Illustrator 16.0.3, SVG Export Plug-In . SVG Version: 6.00 Build 0)  -->
<!DOCTYPE svg PUBLIC "-//W3C//DTD SVG 1.1//EN" "http://www.w3.org/Graphics/SVG/1.1/DTD/svg11.dtd">
<svg version="1.1" id="レイヤー_1" xmlns="http://www.w3.org/2000/svg" xmlns:xlink="http://www.w3.org/1999/xlink" x="0px"
	 y="0px" width="116px" height="116px" viewBox="0 0 116 116" enable-background="new 0 0 116 116" xml:space="preserve">
<g>
	<g>
		<path fill="#020000" d="M80.596,22.781c-4.861,3.364-9.752,6.729-14.582,10.126c-2.025,1.402-5.453,4.269-7.977,4.269h-0.031
			h-0.031c-2.523,0-5.951-2.866-7.977-4.269c-4.83-3.396-9.721-6.762-14.551-10.126c-2.213-1.496-5.359-5.017-5.359-7.853
			c0-3.054,1.651-5.671,4.985-5.671h45.865c2.711,0,4.985,2.243,4.985,4.985C85.924,17.733,83.338,20.88,80.596,22.781z
			 M85.924,48.144c0,2.742-2.243,4.985-4.985,4.985H35.073c-2.742,0-4.985-2.243-4.985-4.985V23.404
			c0.935,1.028,1.994,1.932,3.146,2.711c5.173,3.521,10.407,7.041,15.486,10.749c2.617,1.932,5.857,4.3,9.254,4.3h0.031h0.031
			c3.396,0,6.637-2.368,9.254-4.3c5.079-3.677,10.313-7.229,15.518-10.749c1.121-0.779,2.181-1.683,3.115-2.711V48.144z"/>
	</g>
	<g>
		<rect x="16.242" y="61.73" fill="none" width="83.516" height="45.012"/>
		<path fill="#020000" d="M32.598,63.868l-3.78,13.702h-1.53l-1.783-7.328c-0.449-1.801-0.738-3.169-0.918-4.537H24.55
			c-0.216,1.368-0.576,2.719-1.08,4.52l-1.98,7.346h-1.53l-3.403-13.702h1.585l1.674,7.13c0.396,1.729,0.774,3.386,1.008,4.754
			h0.055c0.197-1.387,0.648-3.007,1.098-4.771l1.891-7.112h1.514l1.729,7.094c0.377,1.639,0.773,3.277,0.972,4.771h0.054
			c0.271-1.566,0.648-3.078,1.08-4.771l1.855-7.094H32.598z"/>
		<path fill="#020000" d="M42.658,77.156c-0.559,0.27-1.584,0.612-3.079,0.612c-2.862,0-4.573-2.017-4.573-4.952
			c0-3.078,1.729-5.293,4.375-5.293c3.025,0,3.799,2.772,3.799,4.483c0,0.342-0.018,0.594-0.035,0.828h-6.68
			c0.018,2.719,1.566,3.745,3.33,3.745c1.225,0,1.963-0.252,2.574-0.504L42.658,77.156z M41.703,71.719
			c0.019-1.333-0.539-3.062-2.467-3.062c-1.8,0-2.592,1.711-2.736,3.062H41.703z"/>
		<path fill="#020000" d="M48.38,69.342c0.612-1.135,1.729-1.818,3.259-1.818c2.322,0,3.961,1.998,3.961,5.023
			c0,3.565-2.178,5.239-4.213,5.239c-1.422,0-2.467-0.576-3.169-1.836h-0.054l-0.09,1.62h-1.297
			c0.036-0.648,0.072-1.639,0.072-2.431V63.166h1.494v6.176H48.38z M48.344,73.735c0,1.458,1.099,2.827,2.755,2.827
			c1.909,0,2.972-1.639,2.972-3.962c0-2.053-1.009-3.853-2.918-3.853c-1.71,0-2.809,1.603-2.809,3.043V73.735z"/>
		<path fill="#020000" d="M69.928,63.238c-0.037,0.216-0.252,0.306-0.595,0.324c-0.198,1.008-0.522,2.755-0.738,3.835
			c0.811-0.09,1.549-0.162,1.999-0.162c2.736-0.036,3.673,1.782,3.673,4.483c0,1.351-0.252,2.953-0.612,4.033
			c-0.559,1.836-1.711,2.719-3.205,2.719c-0.738,0-1.711-0.307-3.259-1.566c0.198-0.324,0.343-0.721,0.486-1.099
			c1.44,1.116,2.196,1.368,2.755,1.368c1.025,0,1.639-0.647,1.998-1.8c0.379-1.116,0.576-2.773,0.576-3.691
			c-0.018-2.053-0.684-3.277-2.484-3.259c-0.54,0-1.278,0.072-2.197,0.18c-0.9,3.673-1.962,6.824-3.69,9.723l-1.188-0.576
			c1.746-2.79,2.736-5.581,3.583-9.002c-0.918,0.107-2.232,0.27-3.204,0.432l-0.109-1.26c0.883-0.108,2.359-0.271,3.566-0.415
			c0.27-1.313,0.558-2.935,0.773-4.519L69.928,63.238z M78.264,71.898c-0.576-2.629-2.287-4.861-4.051-6.157l0.973-0.757
			c1.908,1.351,3.799,3.835,4.375,6.41L78.264,71.898z"/>
		<path fill="#020000" d="M87.297,66.245c-0.072,0.18-0.217,0.27-0.469,0.306c-0.144,2.665-0.486,4.934-0.738,5.312h0.019
			c1.765-1.314,4.519-2.214,6.626-2.214c2.773,0,4.502,1.422,4.465,3.942c-0.054,3.313-2.791,4.79-9.758,5.078
			c-0.091-0.343-0.253-0.847-0.451-1.188c6.284-0.271,8.805-1.297,8.859-3.871c0.018-1.729-1.189-2.773-3.295-2.773
			c-3.332,0-6.338,1.999-6.842,2.881l-1.225-0.594c0.359-0.342,0.99-3.565,1.025-7.094L87.297,66.245z M87.603,62.752
			c2.448,0.288,5.222,0.846,6.986,1.584l-0.45,1.243c-1.854-0.793-4.537-1.314-6.914-1.639L87.603,62.752z"/>
		<path fill="#020000" d="M21.291,92.47v1.746c0.63,0.63,2.34,2.61,2.736,3.097l-0.756,0.99c-0.36-0.612-1.261-1.8-1.98-2.7v8.462
			H20.12v-9.057c-0.738,2.197-1.747,4.34-2.772,5.636c-0.145-0.342-0.451-0.81-0.666-1.099c1.296-1.548,2.629-4.482,3.295-7.075
			h-2.881v-1.152h3.024v-3.962l1.513,0.108c-0.018,0.126-0.108,0.198-0.342,0.234v3.619h2.682v1.152H21.291z M24.802,88.454h8.175
			v15.467H31.77v-1.08h-5.797v1.134h-1.171V88.454z M31.77,89.624h-5.797v3.205h5.797V89.624z M25.973,93.945v3.313h5.797v-3.313
			H25.973z M25.973,101.724h5.797v-3.349h-5.797V101.724z"/>
		<path fill="#020000" d="M45.447,90.417v1.008h-6.752v-1.008H45.447z M44.871,97.763v5.294h-4.285v0.846h-1.063v-6.14H44.871z
			 M44.835,92.865v0.99h-5.294v-0.99H44.835z M39.541,96.305v-0.99h5.294v0.99H39.541z M44.781,88.021v0.991h-5.168v-0.991H44.781z
			 M43.791,98.789h-3.205v3.241h3.205V98.789z M51.516,94.972c-0.019,0.145-0.162,0.253-0.396,0.307v2.232
			c0,1.009,0.594,4.105,4.482,5.563c-0.233,0.288-0.576,0.738-0.72,1.026c-2.917-1.134-4.123-3.583-4.375-4.682
			c-0.253,1.117-1.53,3.476-4.88,4.682c-0.144-0.252-0.468-0.72-0.701-0.954c4.375-1.53,4.969-4.592,4.969-5.636V94.9l0.631,0.035
			L51.516,94.972z M48.202,96.683c-0.234,1.387-0.829,2.791-1.854,3.565l-0.955-0.595c0.9-0.63,1.495-1.891,1.729-3.205
			L48.202,96.683z M51.533,87.481c-0.018,0.145-0.145,0.234-0.36,0.271c-0.09,1.351-0.216,2.539-0.504,3.565
			c1.638,0.972,3.673,2.305,4.735,3.223l-0.811,0.937c-0.918-0.864-2.719-2.125-4.303-3.115c-0.685,1.458-1.873,2.521-4.088,3.259
			c-0.125-0.288-0.432-0.72-0.701-0.954c3.78-1.152,4.338-3.349,4.519-7.292L51.533,87.481z M45.861,91.641
			c0.756-0.63,1.278-1.836,1.44-3.024l1.026,0.216c-0.18,1.225-0.666,2.539-1.549,3.277L45.861,91.641z M52.235,91.479
			c0.54-0.792,1.242-2.07,1.62-2.952l1.332,0.558c-0.053,0.108-0.197,0.162-0.377,0.145c-0.414,0.792-1.135,1.927-1.693,2.665
			L52.235,91.479z M55.422,96.898c-0.054,0.108-0.18,0.162-0.378,0.162c-0.45,0.847-1.224,2.106-1.854,2.899l-0.9-0.433
			c0.576-0.828,1.351-2.232,1.765-3.205L55.422,96.898z"/>
		<path fill="#020000" d="M76.32,94.198l0.9,0.216c-0.055,0.198-2.27,3.205-4.322,4.879l-0.99-0.63
			c1.009-0.811,2.197-2.089,3.133-3.295H69.82c-0.037,0.108-0.127,0.162-0.36,0.198v7.04c0,0.774-0.198,1.134-0.811,1.332
			c-0.612,0.181-1.675,0.181-3.276,0.181c-0.072-0.343-0.289-0.828-0.469-1.171c0.774,0.019,1.494,0.036,2.053,0.036
			c1.17,0,1.26,0,1.26-0.396v-7.22h-7.436v-1.152h9.688c-1.514-0.954-3.746-2.017-5.618-2.683l0.828-0.883
			c1.116,0.379,2.376,0.9,3.547,1.459c1.206-0.685,2.539-1.639,3.529-2.521H62.492v-1.135h11.145c0.342,0,0.379,0,0.631-0.072
			l1.08,0.721c-0.072,0.071-0.198,0.126-0.324,0.144c-1.17,1.135-2.953,2.485-4.592,3.476c0.703,0.378,1.333,0.756,1.818,1.098
			l-0.342,0.396h4.16L76.32,94.198z"/>
		<path fill="#020000" d="M84.83,98.105c-0.036,0.107-0.145,0.18-0.36,0.18c-0.288,1.53-0.792,3.259-1.404,4.321
			c-0.216-0.145-0.648-0.342-0.919-0.468c0.595-1.009,1.045-2.737,1.333-4.376L84.83,98.105z M86.828,87.932
			c-0.09,0.126-0.234,0.162-0.378,0.145c-0.558,1.044-1.458,2.503-2.214,3.529c0.485,0.468,0.936,0.936,1.26,1.35
			c0.883-1.224,1.729-2.502,2.322-3.547l1.297,0.612c-0.055,0.108-0.198,0.145-0.396,0.145c-1.008,1.566-2.592,3.69-3.997,5.257
			c1.152-0.018,2.396-0.036,3.655-0.071c-0.359-0.595-0.774-1.207-1.188-1.711c0.505-0.271,0.702-0.36,0.882-0.468
			c0.919,1.134,1.891,2.646,2.27,3.637l-0.937,0.54c-0.126-0.306-0.288-0.666-0.505-1.063l-2.088,0.108v7.706h-1.135v-7.652
			c-1.115,0.036-2.125,0.09-2.916,0.108c-0.037,0.144-0.145,0.216-0.271,0.234l-0.324-1.351h1.351
			c0.432-0.486,0.883-1.026,1.332-1.621c-0.576-0.773-1.602-1.782-2.484-2.502l0.594-0.774c0.18,0.144,0.36,0.288,0.559,0.432
			c0.702-1.044,1.53-2.538,1.998-3.601L86.828,87.932z M88.971,101.67c-0.197-0.973-0.773-2.484-1.332-3.619l0.973-0.342
			c0.576,1.134,1.17,2.61,1.404,3.583L88.971,101.67z M98.01,90.776l0.648,0.072c0,0.108-0.018,0.271-0.036,0.396
			c-0.288,8.444-0.576,11.271-1.296,12.153c-0.486,0.595-0.973,0.702-2.215,0.702c-0.613,0-1.351-0.018-2.07-0.072
			c-0.037-0.342-0.162-0.828-0.396-1.152c1.242,0.108,2.377,0.126,2.826,0.126c0.36,0,0.595-0.054,0.793-0.287
			c0.594-0.631,0.9-3.422,1.17-10.75h-5.654c-0.485,1.116-1.043,2.125-1.619,2.899c-0.234-0.181-0.686-0.486-0.99-0.648
			c1.205-1.566,2.25-4.249,2.881-6.86l1.512,0.396c-0.036,0.162-0.198,0.216-0.396,0.198c-0.252,0.954-0.558,1.908-0.918,2.845
			h5.492L98.01,90.776z M92.122,94.756c1.044,1.314,2.161,3.061,2.593,4.231l-1.063,0.576c-0.414-1.152-1.494-2.971-2.521-4.304
			L92.122,94.756z"/>
	</g>
</g>
<rect fill="none" width="116" height="116"/>
</svg>
