<?xml version="1.0" encoding="iso-8859-1"?>
<!-- Generator: Adobe Illustrator 19.0.0, SVG Export Plug-In . SVG Version: 6.00 Build 0)  -->
<svg version="1.1" id="Layer_1" xmlns="http://www.w3.org/2000/svg" xmlns:xlink="http://www.w3.org/1999/xlink" x="0px" y="0px"
	 viewBox="0 0 512 512" style="enable-background:new 0 0 512 512;" xml:space="preserve">
<g>
	<g>
		<path d="M210.781,33.311c-2.153-5.16-8.079-7.605-13.24-5.452c-65.834,27.431-96.959,71.96-111.474,104.486
			c-9.586,21.475-13.386,40.544-14.891,52.491l-58.43-15.657c-3.599-0.97-7.453,0.131-10.007,2.855s-3.402,6.632-2.205,10.17
			l46.795,138.327c1.085,3.207,3.701,5.659,6.971,6.536c0.865,0.231,1.745,0.345,2.62,0.345c2.43,0,4.813-0.876,6.684-2.52
			l109.689-96.397c2.806-2.465,4.024-6.274,3.177-9.909c-0.85-3.636-3.634-6.51-7.241-7.477l-45.971-12.318
			c-5.404-1.446-10.953,1.758-12.399,7.16c-1.449,5.401,1.758,10.953,7.159,12.401l27.696,7.421l-84.07,73.883L25.78,193.637
			l51.917,13.911c3.043,0.817,6.299,0.167,8.798-1.759c2.499-1.925,3.958-4.903,3.948-8.057
			c-0.003-1.031,0.957-103.708,114.885-151.179C210.492,44.402,212.932,38.474,210.781,33.311z"/>
	</g>
</g>
<g>
	<g>
		<path d="M475.18,131.193c-13.806-19.039-28.42-31.864-38.014-39.14L479.94,49.28c2.64-2.64,3.614-6.52,2.531-10.094
			c-1.08-3.573-4.042-6.261-7.705-6.995L331.572,3.552c-3.315-0.662-6.754,0.376-9.144,2.769c-2.395,2.394-3.433,5.827-2.769,9.146
			L348.3,158.66c0.732,3.661,3.419,6.622,6.993,7.705c3.574,1.077,7.453,0.11,10.093-2.531l33.654-33.656
			c3.955-3.954,3.955-10.365,0-14.319c-3.955-3.953-10.367-3.953-14.318,0l-20.278,20.278L342.493,26.389l109.751,21.95
			l-38.007,38.004c-2.225,2.225-3.278,5.362-2.87,8.481c0.408,3.118,2.254,5.877,4.976,7.453
			c3.654,2.116,89.288,53.216,73.505,175.097c-0.719,5.546,3.194,10.623,8.741,11.342c0.44,0.057,0.88,0.085,1.313,0.085
			c5.013,0,9.369-3.721,10.029-8.826C519.092,209.246,496.09,160.028,475.18,131.193z"/>
	</g>
</g>
<g>
	<g>
		<path d="M461.057,386.209c-0.875-3.271-3.327-5.886-6.533-6.971l-138.327-46.795c-3.545-1.199-7.446-0.347-10.172,2.205
			c-2.724,2.554-3.819,6.4-2.853,10.007l12.318,45.973c1.446,5.401,6.998,8.605,12.399,7.16c5.401-1.447,8.607-6.999,7.159-12.401
			l-7.421-27.699l106.018,35.865l-73.88,84.07l-13.912-51.917c-0.816-3.047-3.003-5.539-5.92-6.741
			c-2.919-1.2-6.227-0.976-8.951,0.611c-0.895,0.518-90.294,51.027-188.37-23.905c-4.447-3.394-10.8-2.542-14.194,1.9
			c-3.394,4.443-2.544,10.798,1.898,14.193c56.673,43.298,110.797,47.99,146.225,44.297c23.392-2.437,41.806-8.682,52.903-13.351
			l15.657,58.43c0.964,3.607,3.839,6.389,7.475,7.239c0.764,0.179,1.538,0.266,2.304,0.266c2.875,0,5.659-1.226,7.606-3.441
			l96.397-109.689C461.119,392.97,461.934,389.478,461.057,386.209z"/>
	</g>
</g>
<g>
</g>
<g>
</g>
<g>
</g>
<g>
</g>
<g>
</g>
<g>
</g>
<g>
</g>
<g>
</g>
<g>
</g>
<g>
</g>
<g>
</g>
<g>
</g>
<g>
</g>
<g>
</g>
<g>
</g>
</svg>
