<?xml version="1.0" encoding="iso-8859-1"?>
<!-- Generator: Adobe Illustrator 19.0.0, SVG Export Plug-In . SVG Version: 6.00 Build 0)  -->
<svg version="1.1" id="Layer_1" xmlns="http://www.w3.org/2000/svg" xmlns:xlink="http://www.w3.org/1999/xlink" x="0px" y="0px"
	 viewBox="0 0 511.97 511.97" style="enable-background:new 0 0 511.97 511.97;" xml:space="preserve">
<g>
	<g>
		<g>
			<path d="M447.974,447.972v-42.654h-0.002c5.891,0,10.656-4.781,10.656-10.688V10.663C458.628,4.772,453.862,0,447.972,0H95.994
				C72.464,0,53.34,19.14,53.34,42.661v383.968c0,23.531,19.124,42.686,42.654,42.686h10.655v31.998
				c0,3.422,1.656,6.641,4.438,8.641c2.781,2.016,6.358,2.547,9.608,1.469l28.639-9.547l28.624,9.547
				c1.094,0.359,2.233,0.547,3.374,0.547c2.203,0,4.391-0.688,6.219-2.016c2.781-2,4.438-5.219,4.438-8.641v-31.999h234.643h10.686
				h10.656c5.891,0,10.656-4.781,10.656-10.688C458.63,452.751,453.864,447.972,447.974,447.972z M74.651,341.323
				c5.906,0,10.687-4.781,10.687-10.688c0-5.875-4.78-10.654-10.687-10.654v-42.654c5.906,0,10.687-4.781,10.687-10.68
				c0-5.891-4.78-10.662-10.687-10.662v-42.662c5.906,0,10.687-4.78,10.687-10.671s-4.78-10.663-10.687-10.663v-42.662
				c5.906,0,10.687-4.78,10.687-10.671c0-5.891-4.78-10.663-10.687-10.663V85.33c5.906,0,10.687-4.78,10.687-10.671
				s-4.78-10.663-10.687-10.663V42.661c0-11.757,9.577-21.327,21.343-21.327h10.655v362.643H95.994
				c-7.766,0-15.062,2.094-21.343,5.748V341.323z M170.645,486.5l-17.952-5.982c-2.188-0.734-4.547-0.734-6.733,0l-17.968,5.982
				v-49.184h42.653V486.5z M426.631,415.973h-74.652c-5.891,0-10.656,4.779-10.656,10.654c0,5.906,4.766,10.688,10.656,10.688
				h74.652v10.656H191.988v-10.655c5.89,0,10.655-4.781,10.655-10.688c0-5.875-4.766-10.654-10.655-10.654h-85.339
				c-5.875,0-10.655,4.779-10.655,10.654c0,5.906,4.78,10.688,10.655,10.688v10.656H95.994c-11.766,0-21.343-9.562-21.343-21.344
				c0-11.748,9.577-21.311,21.343-21.311h330.637V415.973z M437.316,383.976H426.63H127.992V21.334h309.324V383.976z"/>
			<path d="M202.642,255.984c23.53,0,42.686-19.14,42.686-42.662c0-0.023-0.016-0.047-0.016-0.07c0-0.242-0.016-0.484-0.031-0.727
				c-0.016-0.125-0.016-0.242-0.031-0.367c-0.016-0.179-0.047-0.358-0.078-0.538c-0.031-0.188-0.062-0.367-0.094-0.547
				c-0.031-0.125-0.062-0.234-0.094-0.352c-0.062-0.242-0.125-0.477-0.188-0.711c-0.016-0.023-0.016-0.039-0.031-0.062
				l-27.312-81.956h49.186v149.334h-53.311c-5.905,0-10.687,4.766-10.687,10.656c0,5.889,4.781,10.654,10.687,10.654H341.32
				c5.875,0,10.656-4.766,10.656-10.654c0-5.891-4.781-10.656-10.656-10.656h-53.34V127.992h49.2l-27.327,81.956
				c0,0.023,0,0.039-0.016,0.062c-0.078,0.234-0.141,0.469-0.203,0.711c-0.016,0.117-0.062,0.227-0.078,0.352
				c-0.047,0.18-0.062,0.359-0.094,0.547c-0.031,0.18-0.062,0.359-0.078,0.538c-0.031,0.125-0.031,0.242-0.031,0.367
				c-0.016,0.242-0.031,0.484-0.031,0.727c0,0.023,0,0.047,0,0.07c0,23.522,19.125,42.662,42.654,42.662s42.654-19.14,42.654-42.662
				c0-0.023,0-0.047,0-0.07c0-0.242-0.016-0.484-0.031-0.727c0-0.125,0-0.242-0.031-0.367c-0.016-0.179-0.047-0.358-0.078-0.538
				c-0.031-0.188-0.047-0.367-0.094-0.547c-0.016-0.125-0.062-0.234-0.078-0.352c-0.062-0.242-0.125-0.477-0.203-0.711
				c-0.016-0.023-0.016-0.039-0.016-0.062l-31.936-95.783c0,0,0-0.023,0-0.039l-0.062-0.172c-0.031-0.07-0.062-0.133-0.094-0.203
				c-0.031-0.133-0.078-0.258-0.125-0.383c-0.062-0.117-0.094-0.227-0.156-0.336c-0.031-0.102-0.078-0.195-0.125-0.289
				c-0.062-0.109-0.094-0.211-0.156-0.312c-0.062-0.109-0.109-0.211-0.172-0.32c-0.047-0.102-0.109-0.203-0.172-0.305
				c-0.062-0.094-0.125-0.188-0.188-0.281c-0.063-0.093-0.109-0.18-0.172-0.273c-0.078-0.102-0.141-0.211-0.234-0.312
				c-0.062-0.086-0.125-0.18-0.203-0.266c-0.062-0.078-0.125-0.156-0.188-0.227c-0.078-0.102-0.172-0.195-0.25-0.297
				c-0.078-0.086-0.172-0.172-0.25-0.258c-0.078-0.07-0.141-0.133-0.203-0.203c-0.094-0.086-0.172-0.172-0.266-0.25
				c-0.094-0.086-0.188-0.172-0.297-0.25c-0.062-0.062-0.141-0.125-0.219-0.188c-0.094-0.078-0.188-0.148-0.281-0.211
				c-0.094-0.078-0.188-0.156-0.297-0.227c-0.094-0.062-0.172-0.117-0.266-0.18s-0.188-0.117-0.281-0.18
				c-0.109-0.062-0.219-0.117-0.312-0.18c-0.109-0.055-0.219-0.109-0.312-0.164c-0.109-0.055-0.219-0.109-0.328-0.156
				c-0.094-0.047-0.188-0.094-0.281-0.133c-0.109-0.055-0.219-0.102-0.328-0.141c-0.125-0.055-0.266-0.102-0.391-0.148
				c-0.078-0.023-0.141-0.055-0.203-0.078c-0.031,0-0.047-0.008-0.062-0.016c-0.109-0.031-0.219-0.062-0.312-0.094
				c-0.156-0.047-0.297-0.078-0.438-0.117c-0.109-0.023-0.219-0.055-0.312-0.078c-0.078-0.016-0.156-0.031-0.25-0.047
				c-0.156-0.031-0.312-0.047-0.469-0.07c-0.125-0.023-0.25-0.047-0.375-0.055c-0.062-0.008-0.109-0.016-0.156-0.016
				c-0.156-0.016-0.328-0.023-0.484-0.031c-0.141-0.008-0.297-0.016-0.453-0.016c-0.031,0-0.031-0.008-0.062-0.008h-0.188h-0.031
				h-63.777V95.994c0-5.891-4.781-10.664-10.656-10.664c-5.905,0-10.686,4.773-10.686,10.664v10.663h-63.747
				c-0.031,0-0.062,0-0.078,0h-0.172c-0.016,0-0.031,0.008-0.062,0.008c-0.141,0-0.281,0.008-0.422,0.016
				c-0.172,0.008-0.328,0.016-0.516,0.031c-0.047,0-0.094,0.008-0.156,0.016c-0.125,0.008-0.234,0.031-0.344,0.047
				c-0.172,0.023-0.344,0.047-0.5,0.086c-0.094,0.008-0.156,0.023-0.25,0.039c-0.094,0.023-0.188,0.055-0.281,0.078
				c-0.156,0.039-0.312,0.07-0.469,0.117c-0.094,0.031-0.188,0.062-0.297,0.094c-0.016,0.008-0.047,0.016-0.062,0.016
				c-0.078,0.023-0.141,0.055-0.203,0.078c-0.125,0.047-0.266,0.094-0.406,0.148c-0.094,0.047-0.219,0.086-0.312,0.141
				c-0.094,0.039-0.188,0.086-0.281,0.125c-0.109,0.055-0.219,0.109-0.344,0.164c-0.094,0.055-0.188,0.109-0.297,0.164
				c-0.109,0.062-0.203,0.117-0.297,0.18s-0.203,0.117-0.297,0.18s-0.172,0.117-0.266,0.18c-0.109,0.07-0.203,0.148-0.312,0.219
				c-0.094,0.07-0.188,0.148-0.28,0.219c-0.062,0.062-0.141,0.125-0.219,0.188c-0.094,0.078-0.188,0.156-0.281,0.242
				s-0.188,0.172-0.281,0.258c-0.062,0.07-0.125,0.133-0.188,0.203c-0.094,0.086-0.172,0.172-0.25,0.258
				c-0.094,0.094-0.172,0.195-0.25,0.297c-0.062,0.07-0.125,0.148-0.188,0.227c-0.078,0.086-0.156,0.172-0.219,0.266
				c-0.062,0.102-0.156,0.211-0.219,0.312c-0.062,0.094-0.125,0.188-0.188,0.273c-0.062,0.094-0.109,0.188-0.172,0.273
				c-0.062,0.109-0.125,0.211-0.172,0.312c-0.062,0.109-0.125,0.211-0.188,0.32c-0.047,0.102-0.094,0.203-0.141,0.312
				c-0.047,0.094-0.094,0.188-0.141,0.289c-0.047,0.109-0.094,0.227-0.141,0.336c-0.047,0.125-0.094,0.25-0.141,0.375
				c-0.031,0.07-0.062,0.141-0.078,0.211l-0.047,0.172c-0.016,0.016-0.016,0.031-0.031,0.039l-31.917,95.782
				c-0.016,0.023-0.016,0.039-0.016,0.062c-0.078,0.234-0.141,0.469-0.188,0.711c-0.031,0.117-0.078,0.227-0.094,0.344
				c-0.047,0.188-0.062,0.367-0.094,0.555c-0.031,0.18-0.062,0.359-0.094,0.538c0,0.125-0.016,0.25-0.031,0.375
				c0,0.242-0.031,0.477-0.031,0.719c0,0.023,0,0.047,0,0.07C159.989,236.844,179.129,255.984,202.642,255.984z M351.978,234.649
				c-7.875,0-14.78-4.289-18.468-10.663h36.936C366.758,230.36,359.853,234.649,351.978,234.649z M351.978,151.052l17.202,51.599
				h-34.404L351.978,151.052z M202.643,151.052l17.218,51.599h-34.404L202.643,151.052z M221.126,223.986
				c-3.703,6.374-10.592,10.663-18.483,10.663c-7.874,0-14.765-4.289-18.468-10.663H221.126z"/>
		</g>
	</g>
</g>
<g>
</g>
<g>
</g>
<g>
</g>
<g>
</g>
<g>
</g>
<g>
</g>
<g>
</g>
<g>
</g>
<g>
</g>
<g>
</g>
<g>
</g>
<g>
</g>
<g>
</g>
<g>
</g>
<g>
</g>
</svg>
